<?xml version="1.0" encoding="UTF-8"?>
<svg width="60px" height="60px" viewBox="0 0 60 60" version="1.1" xmlns="http://www.w3.org/2000/svg" xmlns:xlink="http://www.w3.org/1999/xlink">
    <!-- Generator: Sketch 52.4 (67378) - http://www.bohemiancoding.com/sketch -->
    <title>Plan</title>
    <desc>Created with Sketch.</desc>
    <defs>
        <path d="M19.1199449,9.10523897 L45.5905331,9.10523897 C46.3993566,9.10523897 47.0611213,8.53759191 47.0611213,7.84380106 L47.0611213,4.69020629 C47.0611213,3.99641544 46.3993566,3.42876838 45.5905331,3.42876838 L19.1199449,3.42876838 C18.3111213,3.42876838 17.6493566,3.99641544 17.6493566,4.69020629 L17.6493566,7.84380106 C17.6493566,8.53759191 18.3111213,9.10523897 19.1199449,9.10523897 Z M19.1199449,23.8111213 L45.5905331,23.8111213 C46.3993566,23.8111213 47.0611213,23.2434743 47.0611213,22.5496834 L47.0611213,19.3960886 C47.0611213,18.7022978 46.3993566,18.1346507 45.5905331,18.1346507 L19.1199449,18.1346507 C18.3111213,18.1346507 17.6493566,18.7022978 17.6493566,19.3960886 L17.6493566,22.5496834 C17.6493566,23.2434743 18.3111213,23.8111213 19.1199449,23.8111213 Z M19.1199449,38.5170037 L45.5905331,38.5170037 C46.3993566,38.5170037 47.0611213,37.9493566 47.0611213,37.2555658 L47.0611213,34.101971 C47.0611213,33.4081801 46.3993566,32.8405331 45.5905331,32.8405331 L19.1199449,32.8405331 C18.3111213,32.8405331 17.6493566,33.4081801 17.6493566,34.101971 L17.6493566,37.2555658 C17.6493566,37.9493566 18.3111213,38.5170037 19.1199449,38.5170037 Z M5.88465074,31.7375919 C3.44898897,31.7375919 1.41773897,33.7136949 1.41773897,36.1493566 C1.41773897,38.5850184 3.44898897,40.5611213 5.88465074,40.5611213 C8.3203125,40.5611213 10.2964154,38.5850184 10.2964154,36.1493566 C10.2964154,33.7136949 8.3203125,31.7375919 5.88465074,31.7375919 Z" id="path-1"></path>
        <linearGradient x1="81.5526971%" y1="23.5381382%" x2="22.421965%" y2="89.6736375%" id="linearGradient-3">
            <stop stop-color="#265ED5" offset="0%"></stop>
            <stop stop-color="#26A2FF" offset="100%"></stop>
        </linearGradient>
    </defs>
    <g id="Plan" stroke="none" stroke-width="1" fill="none" fill-rule="evenodd">
        <g id="tasks" transform="translate(6.000000, 9.000000)">
            <path d="M12.5457383,3.82055631 L6.75878855,9.60750601 L5.50842269,10.8578719 C5.1317099,11.2345847 4.4744663,11.2345847 4.09775351,10.8578719 L0.282534594,7.05868329 C-0.094178198,6.6819705 -0.094178198,6.0728179 0.282534594,5.69610511 L1.54091562,4.43772408 C1.91762842,4.06101128 2.52678102,4.06101128 2.90349381,4.43772408 L4.72293644,6.20907572 L9.82859705,1.13547577 C10.2053098,0.758762978 10.8144624,0.758762978 11.1911752,1.13547577 L12.5537534,2.45797813 C12.922451,2.83469092 12.922451,3.44384352 12.5457383,3.82055631 Z" id="Path" fill="#79FFC7" fill-rule="nonzero"></path>
            <path d="M12.5457383,18.4849699 L6.75878855,24.2719196 L5.50040752,25.5303006 C5.12369473,25.9070134 4.46645114,25.9070134 4.08973834,25.5303006 L0.282534594,21.7230969 C-0.094178198,21.3463841 -0.094178198,20.7372315 0.282534594,20.3605187 L1.54091562,19.1021377 C1.91762842,18.7254249 2.52678102,18.7254249 2.90349381,19.1021377 L4.72293644,20.8734893 L9.82859705,15.7678287 C10.2053098,15.3911159 10.8144624,15.3911159 11.1911752,15.7678287 L12.5537534,17.1304069 C12.922451,17.4991045 12.922451,18.1082571 12.5457383,18.4849699 Z" id="Path" fill="#79FFC7" fill-rule="nonzero"></path>
            <mask id="mask-2" fill="white">
                <use xlink:href="#path-1"></use>
            </mask>
            <use id="Mask" fill="#000000" fill-rule="nonzero" xlink:href="#path-1"></use>
            <g id="Color" mask="url(#mask-2)" fill="url(#linearGradient-3)">
                <g transform="translate(0.000000, -2.823529)" id="Purple">
                    <rect x="0" y="0" width="47.0588235" height="47.0588235"></rect>
                </g>
            </g>
        </g>
    </g>
</svg>