<?xml version="1.0" encoding="UTF-8"?>
<svg width="60px" height="60px" viewBox="0 0 60 60" version="1.1" xmlns="http://www.w3.org/2000/svg" xmlns:xlink="http://www.w3.org/1999/xlink">
    <!-- Generator: Sketch 52.4 (67378) - http://www.bohemiancoding.com/sketch -->
    <title>Development</title>
    <desc>Created with Sketch.</desc>
    <defs>
        <path d="M38.9980962,26.1535711 L42.8268774,28.3636376 C43.264147,28.6160086 43.467104,29.137911 43.3173345,29.6201024 C42.3227642,32.8223133 40.6247173,35.7152821 38.4038696,38.1180633 C38.0615569,38.4886239 37.5082506,38.5727091 37.0713071,38.3205711 L33.2454009,36.1108641 C31.6356763,37.4901064 29.7850213,38.5601291 27.7865845,39.2670751 L27.7865845,43.6857704 C27.7865919,44.1905594 27.4366284,44.6278925 26.9441196,44.7385594 C23.8035415,45.4438329 20.4305376,45.4803094 17.1314751,44.7391883 C16.6382329,44.628411 16.2866743,44.1915008 16.2866743,43.6859501 L16.2866743,39.2670751 C14.2882184,38.5601704 12.4375562,37.4901436 10.8278579,36.1108641 L7.00195167,38.3205711 C6.5650082,38.5727091 6.01170194,38.4886239 5.66938917,38.1180633 C3.44863136,35.7152821 1.75049464,32.8223133 0.755924325,29.6201024 C0.606154794,29.1380008 0.809111825,28.6160985 1.24638136,28.3636376 L5.07525245,26.1535711 C4.69067795,24.0688448 4.69067795,21.9313561 5.07525245,19.8466297 L1.2464712,17.6365633 C0.809201669,17.3841922 0.606244637,16.8622899 0.756014169,16.3800985 C1.75058448,13.1778876 3.44863136,10.2849188 5.66947901,7.88213755 C6.01179178,7.51157699 6.56509804,7.42749175 7.00204151,7.67962974 L10.8279478,9.88933677 C12.4376724,8.5100945 14.2883273,7.44007182 16.2867642,6.73312583 L16.2867642,2.31434068 C16.2867568,1.8095516 16.6367203,1.37221853 17.129229,1.26155161 C20.2698071,0.556278176 23.642811,0.519801614 26.9418735,1.26092271 C27.4351157,1.37170005 27.7866743,1.80861021 27.7866743,2.31416099 L27.7866743,6.73303599 C29.7851303,7.43994061 31.6357925,8.50996748 33.2454907,9.88924693 L37.071397,7.6795399 C37.5083405,7.4274019 38.0616467,7.51148714 38.4039595,7.88204771 C40.6247173,10.284829 42.322854,13.1777977 43.3174243,16.3800086 C43.4671939,16.8621102 43.2642368,17.3840126 42.8269673,17.6364735 L38.9980962,19.8465399 C39.3826716,21.9312963 39.3826716,24.0688147 38.9980962,26.1535711 Z M29.2241743,23.0000555 C29.2241743,19.036868 25.9998618,15.8125555 22.0366743,15.8125555 C18.0734868,15.8125555 14.8491743,19.036868 14.8491743,23.0000555 C14.8491743,26.963243 18.0734868,30.1875555 22.0366743,30.1875555 C25.9998618,30.1875555 29.2241743,26.963243 29.2241743,23.0000555 Z" id="path-1"></path>
        <linearGradient x1="50%" y1="0%" x2="50%" y2="115.258981%" id="linearGradient-3">
            <stop stop-color="#265ED5" offset="0%"></stop>
            <stop stop-color="#26A2FF" offset="100%"></stop>
        </linearGradient>
    </defs>
    <g id="Development" stroke="none" stroke-width="1" fill="none" fill-rule="evenodd">
        <g id="cog" transform="translate(8.000000, 7.000000)">
            <mask id="mask-2" fill="white">
                <use xlink:href="#path-1"></use>
            </mask>
            <use id="Mask" fill="#000000" fill-rule="nonzero" xlink:href="#path-1"></use>
            <g id="Color" mask="url(#mask-2)" fill="url(#linearGradient-3)">
                <g transform="translate(-1.000000, 0.000000)" id="Purple">
                    <rect x="0" y="0" width="46" height="46"></rect>
                </g>
            </g>
        </g>
        <path d="M33.6545312,26.3502894 C28.3250065,22.241499 22.2479642,28.328596 26.3454688,33.6548058 C31.6749935,37.749762 37.7520358,31.6764993 33.6545312,26.3502894 Z" id="Path" fill="#77FAC8" fill-rule="nonzero"></path>
    </g>
</svg>