<?xml version="1.0" encoding="UTF-8"?>
<svg width="60px" height="60px" viewBox="0 0 60 60" version="1.1" xmlns="http://www.w3.org/2000/svg" xmlns:xlink="http://www.w3.org/1999/xlink">
    <!-- Generator: Sketch 52.4 (67378) - http://www.bohemiancoding.com/sketch -->
    <title>Ideate</title>
    <desc>Created with Sketch.</desc>
    <defs>
        <path d="M22.9444444,37.1527778 L22.9444444,39.5833333 C22.9444444,40.4903646 22.3645833,41.2616319 21.5555556,41.5476562 L21.5555556,42.3611111 C21.5555556,43.5117188 20.6228299,44.4444444 19.4722222,44.4444444 L12.5277778,44.4444444 C11.3771701,44.4444444 10.4444444,43.5117188 10.4444444,42.3611111 L10.4444444,41.5476562 C9.63541667,41.2616319 9.05555556,40.4903646 9.05555556,39.5833333 L9.05555556,37.1527778 C9.05555556,36.5775174 9.52196181,36.1111111 10.0972222,36.1111111 L21.9027778,36.1111111 C22.4780382,36.1111111 22.9444444,36.5775174 22.9444444,37.1527778 Z M10.5219618,33.3333333 C9.66197917,33.3333333 8.88776042,32.8057292 8.57960069,32.0028646 C5.20980903,23.2240451 0.722222222,24.1085937 0.722222222,15.2777778 C0.722222222,6.84053819 7.56293403,0 16,0 C24.437066,0 31.2777778,6.84053819 31.2777778,15.2777778 C31.2777778,24.1085937 26.790191,23.2240451 23.4204861,32.0028646 C23.1123264,32.8057292 22.3380208,33.3333333 21.478125,33.3333333 L10.5219618,33.3333333 Z" id="path-1"></path>
        <linearGradient x1="64.9577196%" y1="0%" x2="34.3305358%" y2="74.6022854%" id="linearGradient-3">
            <stop stop-color="#1F62CC" offset="0%"></stop>
            <stop stop-color="#26A2FF" offset="100%"></stop>
        </linearGradient>
    </defs>
    <g id="Ideate" stroke="none" stroke-width="1" fill="none" fill-rule="evenodd">
        <g id="lightbulb" transform="translate(14.000000, 7.000000)">
            <mask id="mask-2" fill="white">
                <use xlink:href="#path-1"></use>
            </mask>
            <use id="Mask" fill="#000000" fill-rule="nonzero" xlink:href="#path-1"></use>
            <g id="Color" mask="url(#mask-2)" fill="url(#linearGradient-3)">
                <g transform="translate(-6.222222, 0.000000)" id="Purple">
                    <rect x="0" y="0" width="44.4444444" height="44.4444444"></rect>
                </g>
            </g>
            <path d="M9.05555556,15.2777778 C9.05555556,11.4486111 12.1708333,8.33333333 16,8.33333333 C16.7671007,8.33333333 17.3888889,7.71145833 17.3888889,6.94444444 C17.3888889,6.17743056 16.7671007,5.55555556 16,5.55555556 C10.6391493,5.55555556 6.27777778,9.91692708 6.27777778,15.2777778 C6.27777778,16.0447917 6.89965278,16.6666667 7.66666667,16.6666667 C8.43368056,16.6666667 9.05555556,16.0447917 9.05555556,15.2777778 Z" id="Path" fill="#79FFC7" fill-rule="nonzero" mask="url(#mask-2)"></path>
        </g>
    </g>
</svg>