<?xml version="1.0" encoding="UTF-8"?>
<svg width="60px" height="60px" viewBox="0 0 60 60" version="1.1" xmlns="http://www.w3.org/2000/svg" xmlns:xlink="http://www.w3.org/1999/xlink">
    <!-- Generator: Sketch 52.4 (67378) - http://www.bohemiancoding.com/sketch -->
    <title>Services_DIgital Marketing</title>
    <desc>Created with Sketch.</desc>
    <defs>
        <path d="M44,17.8391476 C44,16.2433126 42.9794444,14.8862114 41.5555556,14.382778 L41.5555556,5.6198904 C41.5555556,2.92050373 39.3667083,0.7321875 36.6666667,0.7321875 C31.7025347,5.00892754 25.8170764,10.5075933 15.8888889,10.5075933 L3.66666667,10.5075933 C1.64159722,10.5075933 0,12.1487923 0,14.1733705 L0,21.5049248 C0,23.529503 1.64159722,25.170702 3.66666667,25.170702 L6.97147917,25.170702 C5.53979861,30.1080456 7.16084722,34.0586079 8.40865972,37.9581547 C8.53867361,38.364445 8.80611111,38.7136866 9.16659028,38.9418049 C10.7539514,39.946457 14.3881528,40.1375356 16.3298056,39.3351886 C17.5555417,38.828624 17.8545278,37.2408843 16.9044028,36.3157338 C15.4905972,34.9390817 14.6023472,33.4969039 15.3922847,31.6679865 C15.5184039,31.3764899 15.4883609,31.0409807 15.3124583,30.7765154 C14.0666319,28.8917713 15.0389097,26.0333816 17.4908403,25.2204191 C26.4613403,25.773035 31.9757014,30.9046648 36.6666667,34.9461078 C39.3667083,34.9461078 41.5555556,32.7577916 41.5555556,30.0584049 L41.5555556,21.2955173 C42.9794444,20.7920839 44,19.4349826 44,17.8391476 Z M36.6666667,28.519924 C32.4951458,25.0848617 27.1155347,21.422063 19.5555556,20.5024111 L19.5555556,15.1758078 C27.1155347,14.2561559 32.4951458,10.5934336 36.6666667,7.15829489 L36.6666667,28.519924 Z" id="path-1"></path>
        <linearGradient x1="50%" y1="0%" x2="50%" y2="100%" id="linearGradient-3">
            <stop stop-color="#265ED5" offset="0%"></stop>
            <stop stop-color="#26A2FF" offset="100%"></stop>
        </linearGradient>
    </defs>
    <g id="Services_DIgital-Marketing" stroke="none" stroke-width="1" fill="none" fill-rule="evenodd">
        <g id="bullhorn" transform="translate(8.000000, 10.000000)">
            <mask id="mask-2" fill="white">
                <use xlink:href="#path-1"></use>
            </mask>
            <use id="Mask" fill="#000000" fill-rule="nonzero" xlink:href="#path-1"></use>
            <g id="Color" mask="url(#mask-2)" fill="url(#linearGradient-3)">
                <g transform="translate(0.000000, -1.760000)" id="Purple">
                    <rect x="0" y="0" width="44" height="44"></rect>
                </g>
            </g>
        </g>
    </g>
</svg>