<?xml version="1.0" encoding="UTF-8"?>
<svg width="60px" height="60px" viewBox="0 0 60 60" version="1.1" xmlns="http://www.w3.org/2000/svg" xmlns:xlink="http://www.w3.org/1999/xlink">
    <!-- Generator: Sketch 52.4 (67378) - http://www.bohemiancoding.com/sketch -->
    <title>Services_SEO &amp; Analytics</title>
    <desc>Created with Sketch.</desc>
    <defs>
        <path d="M41.015625,26.46 C41.5570313,26.46 42,26.9029687 42,27.444375 L42,30.725625 C42,31.2670313 41.5570313,31.71 41.015625,31.71 L0.984375,31.71 C0.44296875,31.71 0,31.2670313 0,30.725625 L0,1.194375 C0,0.65296875 0.44296875,0.21 0.984375,0.21 L4.265625,0.21 C4.80703125,0.21 5.25,0.65296875 5.25,1.194375 L5.25,26.46 L41.015625,26.46 Z M37.40625,2.835 L28.21875,2.835 C26.4632812,2.835 25.5855469,4.95960938 26.8242187,6.19828125 L29.5230469,8.89710937 L23.6167969,14.8771875 L19.0558594,10.31625 C18.6703125,9.93070313 18.0550781,9.93070313 17.6695312,10.31625 L7.9078125,19.9795312 C7.52226562,20.356875 7.5140625,20.9803125 7.89140625,21.3658594 L10.2292969,23.7775781 C10.6148437,24.1713281 11.2464844,24.1795312 11.6320313,23.7857812 L18.3667969,17.0510156 L22.9195312,21.60375 C23.3050781,21.9892969 23.9285156,21.9892969 24.3140625,21.60375 L33.271875,12.6459375 L36.0117188,15.3857812 C37.2503906,16.6244531 39.375,15.7467187 39.375,13.99125 L39.375,4.80375 C39.375,3.71273438 38.4972656,2.835 37.40625,2.835 Z" id="path-1"></path>
        <linearGradient x1="50%" y1="0%" x2="50%" y2="100%" id="linearGradient-3">
            <stop stop-color="#265ED5" offset="0%"></stop>
            <stop stop-color="#26A2FF" offset="100%"></stop>
        </linearGradient>
    </defs>
    <g id="Services_SEO-&amp;-Analytics" stroke="none" stroke-width="1" fill="none" fill-rule="evenodd">
        <g id="chart-line" transform="translate(9.000000, 14.000000)">
            <mask id="mask-2" fill="white">
                <use xlink:href="#path-1"></use>
            </mask>
            <use id="Mask" fill="#000000" fill-rule="nonzero" xlink:href="#path-1"></use>
            <g id="Color" mask="url(#mask-2)" fill="url(#linearGradient-3)">
                <g transform="translate(0.000000, -5.040000)" id="Purple">
                    <rect x="0" y="0" width="42" height="42"></rect>
                </g>
            </g>
        </g>
    </g>
</svg>