<?xml version="1.0" encoding="UTF-8"?>
<svg width="60px" height="60px" viewBox="0 0 60 60" version="1.1" xmlns="http://www.w3.org/2000/svg" xmlns:xlink="http://www.w3.org/1999/xlink">
    <!-- Generator: Sketch 52.4 (67378) - http://www.bohemiancoding.com/sketch -->
    <title>Services_IT Solutions</title>
    <desc>Created with Sketch.</desc>
    <defs>
        <path d="M41.25,11.11 L2.75,11.11 C1.23122656,11.11 0,9.87877344 0,8.36 L0,2.86 C0,1.34122656 1.23122656,0.11 2.75,0.11 L41.25,0.11 C42.7687734,0.11 44,1.34122656 44,2.86 L44,8.36 C44,9.87877344 42.7687734,11.11 41.25,11.11 Z M37.125,3.5475 C35.9858984,3.5475 35.0625,4.47089844 35.0625,5.61 C35.0625,6.74910156 35.9858984,7.6725 37.125,7.6725 C38.2641016,7.6725 39.1875,6.74910156 39.1875,5.61 C39.1875,4.47089844 38.2641016,3.5475 37.125,3.5475 Z M31.625,3.5475 C30.4858984,3.5475 29.5625,4.47089844 29.5625,5.61 C29.5625,6.74910156 30.4858984,7.6725 31.625,7.6725 C32.7641016,7.6725 33.6875,6.74910156 33.6875,5.61 C33.6875,4.47089844 32.7641016,3.5475 31.625,3.5475 Z M41.25,24.86 L2.75,24.86 C1.23122656,24.86 0,23.6287734 0,22.11 L0,16.61 C0,15.0912266 1.23122656,13.86 2.75,13.86 L41.25,13.86 C42.7687734,13.86 44,15.0912266 44,16.61 L44,22.11 C44,23.6287734 42.7687734,24.86 41.25,24.86 Z M37.125,17.2975 C35.9858984,17.2975 35.0625,18.2208984 35.0625,19.36 C35.0625,20.4991016 35.9858984,21.4225 37.125,21.4225 C38.2641016,21.4225 39.1875,20.4991016 39.1875,19.36 C39.1875,18.2208984 38.2641016,17.2975 37.125,17.2975 Z M31.625,17.2975 C30.4858984,17.2975 29.5625,18.2208984 29.5625,19.36 C29.5625,20.4991016 30.4858984,21.4225 31.625,21.4225 C32.7641016,21.4225 33.6875,20.4991016 33.6875,19.36 C33.6875,18.2208984 32.7641016,17.2975 31.625,17.2975 Z M41.25,38.61 L2.75,38.61 C1.23122656,38.61 0,37.3787734 0,35.86 L0,30.36 C0,28.8412266 1.23122656,27.61 2.75,27.61 L41.25,27.61 C42.7687734,27.61 44,28.8412266 44,30.36 L44,35.86 C44,37.3787734 42.7687734,38.61 41.25,38.61 Z M37.125,31.0475 C35.9858984,31.0475 35.0625,31.9708984 35.0625,33.11 C35.0625,34.2491016 35.9858984,35.1725 37.125,35.1725 C38.2641016,35.1725 39.1875,34.2491016 39.1875,33.11 C39.1875,31.9708984 38.2641016,31.0475 37.125,31.0475 Z M31.625,31.0475 C30.4858984,31.0475 29.5625,31.9708984 29.5625,33.11 C29.5625,34.2491016 30.4858984,35.1725 31.625,35.1725 C32.7641016,35.1725 33.6875,34.2491016 33.6875,33.11 C33.6875,31.9708984 32.7641016,31.0475 31.625,31.0475 Z" id="path-1"></path>
        <linearGradient x1="50%" y1="0%" x2="50%" y2="100%" id="linearGradient-3">
            <stop stop-color="#265ED5" offset="0%"></stop>
            <stop stop-color="#26A2FF" offset="100%"></stop>
        </linearGradient>
    </defs>
    <g id="Services_IT-Solutions" stroke="none" stroke-width="1" fill="none" fill-rule="evenodd">
        <g id="server" transform="translate(8.000000, 11.000000)">
            <mask id="mask-2" fill="white">
                <use xlink:href="#path-1"></use>
            </mask>
            <use id="Mask" fill="#000000" fill-rule="nonzero" xlink:href="#path-1"></use>
            <g id="Color" mask="url(#mask-2)" fill="url(#linearGradient-3)">
                <g transform="translate(0.000000, -2.640000)" id="Purple">
                    <rect x="0" y="0" width="44" height="44"></rect>
                </g>
            </g>
        </g>
    </g>
</svg>