<?xml version="1.0" encoding="UTF-8"?>
<svg width="60px" height="60px" viewBox="0 0 60 60" version="1.1" xmlns="http://www.w3.org/2000/svg" xmlns:xlink="http://www.w3.org/1999/xlink">
    <!-- Generator: Sketch 52.4 (67378) - http://www.bohemiancoding.com/sketch -->
    <title>Services_eCommerce</title>
    <desc>Created with Sketch.</desc>
    <defs>
        <path d="M38.5087599,22.6647193 L41.9557504,7.50175541 C42.2046151,6.40696026 41.3722711,5.36443359 40.2492812,5.36443359 L11.6089197,5.36443359 L10.9405653,2.09783546 C10.7740236,1.28362804 10.0573984,0.69890625 9.2260753,0.69890625 L1.75000045,0.69890625 C0.783489785,0.69890625 0,1.48220455 0,2.448479 L0,3.61486084 C0,4.58113529 0.783489785,5.36443359 1.75000045,5.36443359 L6.84563718,5.36443359 L11.9678885,30.4004552 C10.7424507,31.1050227 9.91666923,32.426096 9.91666923,33.9407886 C9.91666923,36.1954047 11.7448364,38.023125 14.0000036,38.023125 C16.2551709,38.023125 18.083338,36.1954047 18.083338,33.9407886 C18.083338,32.7981718 17.6132441,31.7658509 16.8565877,31.024834 L32.143352,31.024834 C31.3867685,31.7658509 30.9166746,32.7981718 30.9166746,33.9407886 C30.9166746,36.1954047 32.7448418,38.023125 35.000009,38.023125 C37.2551763,38.023125 39.0833434,36.1954047 39.0833434,33.9407886 C39.0833434,32.3244749 38.1435932,30.9277327 36.7807074,30.2663213 L37.1829888,28.4966285 C37.4318534,27.4018333 36.5995094,26.3593066 35.4765196,26.3593066 L15.9043687,26.3593066 L15.427129,24.026543 L36.8022907,24.026543 C37.6193951,24.026543 38.3277078,23.4612852 38.5087599,22.6647193 Z" id="path-1"></path>
        <linearGradient x1="50%" y1="0%" x2="50%" y2="100%" id="linearGradient-3">
            <stop stop-color="#265ED5" offset="0%"></stop>
            <stop stop-color="#26A2FF" offset="100%"></stop>
        </linearGradient>
    </defs>
    <g id="Services_eCommerce" stroke="none" stroke-width="1" fill="none" fill-rule="evenodd">
        <g id="shopping-cart" transform="translate(9.000000, 11.000000)">
            <mask id="mask-2" fill="white">
                <use xlink:href="#path-1"></use>
            </mask>
            <use id="Mask" fill="#000000" fill-rule="nonzero" xlink:href="#path-1"></use>
            <g id="Color" mask="url(#mask-2)" fill="url(#linearGradient-3)">
                <g transform="translate(0.000000, -1.680000)" id="Purple">
                    <rect x="0" y="0" width="42" height="42"></rect>
                </g>
            </g>
        </g>
    </g>
</svg>