<?xml version="1.0" encoding="UTF-8"?>
<svg width="60px" height="60px" viewBox="0 0 60 60" version="1.1" xmlns="http://www.w3.org/2000/svg" xmlns:xlink="http://www.w3.org/1999/xlink">
    <!-- Generator: Sketch 52.4 (67378) - http://www.bohemiancoding.com/sketch -->
    <title>Services_Web+bMobile Design</title>
    <desc>Created with Sketch.</desc>
    <defs>
        <path d="M40,3.75 L40,26.25 C40,28.3203125 38.3203125,30 36.25,30 L32.5,30 L32.5,13.75 C32.5,10.3046875 29.6953125,7.5 26.25,7.5 L10,7.5 L10,3.75 C10,1.6796875 11.6796875,0 13.75,0 L36.25,0 C38.3203125,0 40,1.6796875 40,3.75 Z M30,13.75 L30,36.25 C30,38.3203125 28.3203125,40 26.25,40 L3.75,40 C1.6796875,40 0,38.3203125 0,36.25 L0,13.75 C0,11.6796875 1.6796875,10 3.75,10 L26.25,10 C28.3203125,10 30,11.6796875 30,13.75 Z M24.6875,15.9375 C24.6875,15.421875 24.265625,15 23.75,15 L5.9375,15 C5.421875,15 5,15.421875 5,15.9375 L5,19 C5,19.5522847 5.44771525,20 6,20 L23.6875,20 C24.2397847,20 24.6875,19.5522847 24.6875,19 L24.6875,15.9375 Z" id="path-1"></path>
        <linearGradient x1="50%" y1="0%" x2="50%" y2="100%" id="linearGradient-3">
            <stop stop-color="#265ED5" offset="0%"></stop>
            <stop stop-color="#26A2FF" offset="100%"></stop>
        </linearGradient>
    </defs>
    <g id="Services_Web+bMobile-Design" stroke="none" stroke-width="1" fill="none" fill-rule="evenodd">
        <g id="window-restore" transform="translate(10.000000, 10.000000)">
            <mask id="mask-2" fill="white">
                <use xlink:href="#path-1"></use>
            </mask>
            <use id="Mask" fill="#000000" fill-rule="nonzero" xlink:href="#path-1"></use>
            <g id="Color" mask="url(#mask-2)" fill="url(#linearGradient-3)">
                <rect id="Purple" x="0" y="0" width="40" height="40"></rect>
            </g>
        </g>
    </g>
</svg>